<mxfile host="app.diagrams.net" modified="2023-11-20T17:21:34.051Z" agent="Mozilla/5.0 (Windows NT 10.0; Win64; x64) AppleWebKit/537.36 (KHTML, like Gecko) Chrome/119.0.0.0 Safari/537.36" etag="lq06MrKQuj4Prw7PhZ2Q" version="22.1.3" type="device">
  <diagram name="Page-1" id="eov1Fb9FyBndw1SH94MI">
    <mxGraphModel dx="712" dy="736" grid="1" gridSize="10" guides="1" tooltips="1" connect="1" arrows="1" fold="1" page="1" pageScale="1" pageWidth="827" pageHeight="1169" math="0" shadow="0">
      <root>
        <mxCell id="0" />
        <mxCell id="1" parent="0" />
        <mxCell id="sSnMrB75HZQatDxvtuWG-11" value="korisnici" style="swimlane;childLayout=stackLayout;horizontal=1;startSize=30;horizontalStack=0;rounded=1;fontSize=14;fontStyle=0;strokeWidth=2;resizeParent=0;resizeLast=1;shadow=0;dashed=0;align=center;arcSize=0;whiteSpace=wrap;html=1;" parent="1" vertex="1">
          <mxGeometry x="440" y="240" width="160" height="140" as="geometry" />
        </mxCell>
        <mxCell id="sSnMrB75HZQatDxvtuWG-12" value="sifra&lt;br&gt;ime&lt;br&gt;prezime&lt;br&gt;lozinka&lt;br&gt;uloga&lt;br&gt;email&lt;br&gt;vrijeme_registracija" style="align=left;strokeColor=none;fillColor=none;spacingLeft=4;fontSize=12;verticalAlign=top;resizable=0;rotatable=0;part=1;html=1;" parent="sSnMrB75HZQatDxvtuWG-11" vertex="1">
          <mxGeometry y="30" width="160" height="110" as="geometry" />
        </mxCell>
        <mxCell id="sSnMrB75HZQatDxvtuWG-17" value="kupljeno" style="swimlane;childLayout=stackLayout;horizontal=1;startSize=30;horizontalStack=0;rounded=1;fontSize=14;fontStyle=0;strokeWidth=2;resizeParent=0;resizeLast=1;shadow=0;dashed=0;align=center;arcSize=0;whiteSpace=wrap;html=1;" parent="1" vertex="1">
          <mxGeometry x="440" y="80" width="120" height="80" as="geometry" />
        </mxCell>
        <mxCell id="sSnMrB75HZQatDxvtuWG-18" value="narudzbe&lt;br&gt;proizvod&lt;br&gt;cijena" style="align=left;strokeColor=none;fillColor=none;spacingLeft=4;fontSize=12;verticalAlign=top;resizable=0;rotatable=0;part=1;html=1;" parent="sSnMrB75HZQatDxvtuWG-17" vertex="1">
          <mxGeometry y="30" width="120" height="50" as="geometry" />
        </mxCell>
        <mxCell id="sSnMrB75HZQatDxvtuWG-19" value="narudzbe" style="swimlane;childLayout=stackLayout;horizontal=1;startSize=30;horizontalStack=0;rounded=1;fontSize=14;fontStyle=0;strokeWidth=2;resizeParent=0;resizeLast=1;shadow=0;dashed=0;align=center;arcSize=0;whiteSpace=wrap;html=1;" parent="1" vertex="1">
          <mxGeometry x="240" y="110" width="120" height="130" as="geometry" />
        </mxCell>
        <mxCell id="sSnMrB75HZQatDxvtuWG-20" value="sifra&lt;br&gt;status&lt;br&gt;kolicina&lt;br&gt;transakcijski_id&lt;br&gt;datum_narudzbe&lt;br&gt;korisnik" style="align=left;strokeColor=none;fillColor=none;spacingLeft=4;fontSize=12;verticalAlign=top;resizable=0;rotatable=0;part=1;html=1;" parent="sSnMrB75HZQatDxvtuWG-19" vertex="1">
          <mxGeometry y="30" width="120" height="100" as="geometry" />
        </mxCell>
        <mxCell id="sSnMrB75HZQatDxvtuWG-21" value="proizvodi" style="swimlane;childLayout=stackLayout;horizontal=1;startSize=30;horizontalStack=0;rounded=1;fontSize=14;fontStyle=0;strokeWidth=2;resizeParent=0;resizeLast=1;shadow=0;dashed=0;align=center;arcSize=0;whiteSpace=wrap;html=1;" parent="1" vertex="1">
          <mxGeometry x="40" y="80" width="120" height="160" as="geometry" />
        </mxCell>
        <mxCell id="sSnMrB75HZQatDxvtuWG-22" value="sifra&lt;br&gt;naslov&lt;br&gt;autor&lt;br&gt;slika&lt;br&gt;cijena&lt;br&gt;kategorija&lt;br&gt;sadrzaj&lt;br&gt;vrijeme_kreiranja" style="align=left;strokeColor=none;fillColor=none;spacingLeft=4;fontSize=12;verticalAlign=top;resizable=0;rotatable=0;part=1;html=1;" parent="sSnMrB75HZQatDxvtuWG-21" vertex="1">
          <mxGeometry y="30" width="120" height="130" as="geometry" />
        </mxCell>
        <mxCell id="sSnMrB75HZQatDxvtuWG-30" value="" style="fontSize=12;html=1;endArrow=ERzeroToMany;startArrow=ERmandOne;rounded=0;entryX=0;entryY=0.125;entryDx=0;entryDy=0;entryPerimeter=0;exitX=0.992;exitY=0.069;exitDx=0;exitDy=0;exitPerimeter=0;" parent="1" source="sSnMrB75HZQatDxvtuWG-21" target="sSnMrB75HZQatDxvtuWG-17" edge="1">
          <mxGeometry width="100" height="100" relative="1" as="geometry">
            <mxPoint x="240" y="90" as="sourcePoint" />
            <mxPoint x="350" y="90.00000000000006" as="targetPoint" />
            <Array as="points" />
          </mxGeometry>
        </mxCell>
        <mxCell id="sSnMrB75HZQatDxvtuWG-31" value="" style="fontSize=12;html=1;endArrow=ERzeroToMany;startArrow=ERmandOne;rounded=0;entryX=0;entryY=0.75;entryDx=0;entryDy=0;" parent="1" target="sSnMrB75HZQatDxvtuWG-18" edge="1">
          <mxGeometry width="100" height="100" relative="1" as="geometry">
            <mxPoint x="360" y="148" as="sourcePoint" />
            <mxPoint x="431" y="140" as="targetPoint" />
            <Array as="points" />
          </mxGeometry>
        </mxCell>
        <mxCell id="sSnMrB75HZQatDxvtuWG-37" value="" style="fontSize=12;html=1;endArrow=ERzeroToMany;startArrow=ERmandOne;rounded=0;exitX=0.5;exitY=0;exitDx=0;exitDy=0;" parent="1" source="sSnMrB75HZQatDxvtuWG-11" edge="1">
          <mxGeometry width="100" height="100" relative="1" as="geometry">
            <mxPoint x="520" y="230" as="sourcePoint" />
            <mxPoint x="360" y="200" as="targetPoint" />
            <Array as="points">
              <mxPoint x="520" y="200" />
              <mxPoint x="420" y="200" />
            </Array>
          </mxGeometry>
        </mxCell>
      </root>
    </mxGraphModel>
  </diagram>
</mxfile>
